<?xml version="1.0" encoding="utf-8"?>
<!-- Generator: Adobe Illustrator 21.1.0, SVG Export Plug-In . SVG Version: 6.00 Build 0)  -->
<svg version="1.1" id="Capa_1" xmlns="http://www.w3.org/2000/svg" xmlns:xlink="http://www.w3.org/1999/xlink" x="0px" y="0px"
	 viewBox="0 0 520 213" style="enable-background:new 0 0 520 213;" xml:space="preserve">
<g>
	<g>
		<path style="fill:#FFFFFF;" d="M58.6,150v-3.6H65v-31.2h-6.4v-3.6H89v11.1h-4v-1.7c0-5.3-0.2-5.9-5.2-5.9H69v12.1h8.8v-5.4h4v15
			h-4v-6H69v15.6h12c4.9,0,5.3-0.6,5.3-7.7v-1.2h4V150H58.6z"/>
		<path style="fill:#FFFFFF;" d="M116.1,146.4h10.7v3.6h-26.6v-3.6h12v-32.8c-2.2,0.4-4.4,0.6-6.6,0.6l-3.7,0.1l-0.6-3.5l4.1-0.1
			c2,0,5.8-0.1,7.2-1.8c0.5-0.6,0.9-1,1.7-1c2,0,1.9,1.9,1.9,3.3V146.4z"/>
		<path style="fill:#FFFFFF;" d="M179.3,113.5l-5.8,0.8l-0.6-3.3c2-0.4,5.2-0.1,6.7-1.9c0.5-0.6,0.9-1.1,1.7-1.1
			c1.9,0,1.9,1.8,1.9,3.2v13.5c2.8-1.2,4.8-2,7.8-2c7.9,0,12.9,6.1,12.9,13.7c0,8.1-5.4,14.3-13.7,14.3c-2.8,0-5.2-0.8-7.6-2.3
			c-0.5,1.2-1.3,2.2-2,3.2l-3.3-1.7c1.6-2.2,1.9-2.3,1.9-5V113.5z M183.2,144.5c1.7,1.9,4.4,2.7,6.8,2.7c6.2,0,9.7-4.4,9.7-10.4
			c0-5.2-2.9-10.4-8.8-10.4c-2.9,0-5.5,0.9-7.8,2.8V144.5z"/>
		<path style="fill:#FFFFFF;" d="M273.1,149c-2.4,1-4.4,1.8-7,1.8c-7.6,0-13-6.5-13-13.8c0-7.3,5.3-14.2,13-14.2
			c2.2,0,4.9,0.7,7,1.3v-10.6l-5.8,0.8l-0.6-3.3c2-0.4,5.2-0.1,6.7-1.9c0.5-0.6,0.9-1.1,1.7-1.1c1.9,0,1.9,1.8,1.9,3.2v35.2h5v3.6
			h-9V149z M273.1,128.1c-1.9-1.1-4-1.8-6.1-1.8c-6.1,0-9.7,4.9-9.7,10.7c0,5.2,3.6,10.2,9.1,10.2c2.4,0,4.9-0.9,6.8-2.3V128.1z"/>
		<path style="fill:#FFFFFF;" d="M296.1,138.3c0.4,5.6,4.7,8.9,11.6,8.9c4,0,7.9-1.3,11.8-3l1.2,3.3c-4,2-9,3.3-13.5,3.3
			c-11.6,0-15.2-7.7-15.2-13.4c0-8.2,6-14.6,14.3-14.6c7.9,0,13.1,4.9,13.1,12.9c0,0.9-0.1,1.8-0.3,2.7H296.1z M315.3,134.7
			c0-5-4.2-8.4-9-8.4c-4.9,0-9.2,3.6-10.2,8.4H315.3z"/>
		<path style="fill:#FFFFFF;" d="M356.2,123.5v3.6h-4.7c1.3,2,1.9,3.5,1.9,5.9c0,6.3-4.4,10-10.6,10l-2.2-0.2
			c-0.8,0.4-3.2,2.4-3.2,3.2c0,0.4,2.2,0.4,3.2,0.4h9.8c5.7,0,9.1,2.2,9.1,6.9c0,8.1-9.4,10-15.8,10c-5,0-13.4-0.7-13.4-7.4
			c0-2.8,1.9-5.4,4.3-6.9c-0.6-0.4-1.3-1.3-1.3-2.7c0-1.8,1.9-3.4,3.5-4.8c-3.3-2-5.1-4.5-5.1-8.4c0-5.5,4.7-10.3,10.2-10.3
			c1.7,0,3.5,0.3,5.1,0.8H356.2z M355.4,153.8c0-3.5-2.8-3.8-5.6-3.8h-10.8c-2,1.4-4.5,2.9-4.5,5.7c0,3.9,6.1,4,8.9,4
			C347.6,159.7,355.4,159,355.4,153.8z M342.8,126.3c-3.8,0-7,2.5-7,6.4c0,4.4,2.9,6.7,7.2,6.7c4.3,0,6.3-2.7,6.3-6.3
			C349.3,129.1,346.8,126.3,342.8,126.3z"/>
		<path style="fill:#FFFFFF;" d="M368.4,136.8c0-7.9,6-14,14-14c7.9,0,14,6.1,14,14c0,7.9-6,14-14,14
			C374.5,150.8,368.4,144.6,368.4,136.8z M392.2,136.8c0-5.7-3.9-10.4-9.8-10.4s-9.8,4.7-9.8,10.4c0,5.6,3.9,10.4,9.8,10.4
			S392.2,142.4,392.2,136.8z M392.4,111.7l-12.9,8.6l-2.4-2.8l12-9.7L392.4,111.7z"/>
		<path style="fill:#FFFFFF;" d="M413.2,146.4h4.4v3.6h-12.7v-3.6h4.4v-19.3l-4.7,0.6l-0.6-3.3c2-0.1,4.2-0.4,5.6-1.7
			c0.5-0.6,0.9-1.1,1.7-1.1c1.9,0,1.9,1.8,1.9,3.2v1c3.3-1.5,6.5-3.1,10.2-3.1c3.1,0,6.4,1.2,7.9,4c1.2,2.2,1.1,5.2,1.1,7.7v12h4.4
			v3.6h-12.7v-3.6h4.4v-11.8c0-3.9,0.3-8.3-5-8.3c-3.6,0-7.2,1.7-10.2,3.6V146.4z"/>
	</g>
	<g>
		<path style="fill-rule:evenodd;clip-rule:evenodd;fill:#FFFFFF;" d="M276.7,47.5h5.4c0.2,0,0.3,0.1,0.3,0.3v1.6
			c0,0.2-0.1,0.3-0.3,0.3h-5.4c-0.2,0-0.3-0.1-0.3-0.3v-1.6C276.3,47.6,276.5,47.5,276.7,47.5z"/>
		<path style="fill-rule:evenodd;clip-rule:evenodd;fill:#FFFFFF;" d="M278.6,42.9h1.6c0.5,0,0.8,0.4,0.8,0.8v2.8
			c0,0.5-0.4,0.8-0.8,0.8h-1.6c-0.5,0-0.8-0.4-0.8-0.8v-2.8C277.7,43.2,278.1,42.9,278.6,42.9z"/>
		<path style="fill-rule:evenodd;clip-rule:evenodd;fill:#FFFFFF;" d="M277.5,43.9l6.4-0.4c0.3,0,0.5,0.3,0.5,0.6v1.8
			c0,0.4-0.3,0.7-0.6,0.7l-6.4-0.4V43.9z"/>
		
			<path style="fill-rule:evenodd;clip-rule:evenodd;fill:#FFFFFF;stroke:#5D5250;stroke-width:0.216;stroke-miterlimit:22.9256;" d="
			M281.3,43.9l-6.4-0.4c-0.3,0-0.5,0.3-0.5,0.6v1.8c0,0.4,0.3,0.7,0.6,0.7l6.4-0.4V43.9z"/>
		<path style="fill-rule:evenodd;clip-rule:evenodd;fill:#FFFFFF;" d="M286.5,31c1.6-1.1,3.5-2,5.6-2.9v6.4c-2,0.6-3.9,1.3-5.6,2V31
			L286.5,31z M296,26.6L296,26.6c20.1-7,53.3-7.2,72.7,1.5c-1.2-0.5-2.5-1-3.9-1.5v6.8c-9.7-2.5-21.8-3.6-33.9-3.6
			c-12.6,0-25.2,1.3-34.9,3.7V26.6L296,26.6z M368.7,28.1L368.7,28.1c2,0.9,3.8,1.9,5.5,2.9v5.5c-1.7-0.7-3.5-1.4-5.5-2V28.1
			L368.7,28.1z M374.1,37.4L374.1,37.4c-1.7-0.8-3.5-1.4-5.5-2.1v11.3c2,0.3,3.8,0.5,5.5,0.8V37.4L374.1,37.4z M364.8,46.1
			L364.8,46.1V34.2c-9.7-2.5-21.8-3.6-33.9-3.6c-12.6,0-25.2,1.3-34.9,3.7v11.9c9.7-1,22.3-1.5,34.9-1.5
			C342.9,44.6,355,45.1,364.8,46.1L364.8,46.1z M292.1,46.5L292.1,46.5V35.3c-2,0.6-3.9,1.3-5.6,2.1v10
			C288.2,47.1,290,46.8,292.1,46.5L292.1,46.5z M374.1,48.2L374.1,48.2v14.1c-1.7,0.3-3.5,0.6-5.5,0.8V47.3
			C370.6,47.6,372.5,47.9,374.1,48.2L374.1,48.2z M364.8,63.6L364.8,63.6c-9.7,1-21.8,1.5-33.9,1.5c-12.6,0-25.2-0.5-34.9-1.5V46.9
			c9.7-1,22.3-1.5,34.9-1.5c12.1,0,24.2,0.5,33.9,1.5V63.6L364.8,63.6z M292.1,63.2L292.1,63.2c-2-0.3-3.9-0.5-5.6-0.8V48.2
			c1.7-0.3,3.5-0.6,5.6-0.8V63.2L292.1,63.2z M374.1,63.1L374.1,63.1c-1.7,0.3-3.5,0.6-5.5,0.8v11.3c2-0.6,3.8-1.3,5.5-2.1V63.1
			L374.1,63.1z M364.8,76.3L364.8,76.3V64.4c-9.7,1-21.8,1.5-33.9,1.5c-12.6,0-25.2-0.5-34.9-1.5v11.9c9.7,2.4,22.3,3.7,34.9,3.7
			C342.9,80,355.1,78.8,364.8,76.3L364.8,76.3z M292.1,75.2L292.1,75.2V64c-2-0.3-3.9-0.5-5.6-0.8v10
			C288.2,73.9,290,74.6,292.1,75.2L292.1,75.2z M374.1,74L374.1,74v5.5c-1.7,1.1-3.5,2.1-5.5,2.9v-6.4
			C370.6,75.5,372.5,74.8,374.1,74L374.1,74z M366.7,83.3L366.7,83.3c-19.6,7.8-51.2,7.5-70.7,0.7v-6.8c9.7,2.4,22.3,3.7,34.9,3.7
			c12.1,0,24.2-1.2,33.9-3.6V84C365.4,83.8,366,83.5,366.7,83.3L366.7,83.3z M292.1,82.4L292.1,82.4c-2.1-0.9-3.9-1.9-5.6-2.9V74
			c1.7,0.7,3.5,1.4,5.6,2V82.4z"/>
		<path style="fill-rule:evenodd;clip-rule:evenodd;fill:#FFFFFF;" d="M266.3,59.3h5.4c0.7,0,1.3,0.6,1.3,1.3c0,0.7-0.6,1.3-1.3,1.3
			h-5.4c-0.7,0-1.3-0.6-1.3-1.3C265,59.9,265.6,59.3,266.3,59.3z"/>
		<path style="fill-rule:evenodd;clip-rule:evenodd;fill:#FFFFFF;" d="M266.5,59l5,0.1l0.5-1.3c1.1-2.9,8.6,3,16.7,0.1l-0.1-4.9
			c-3,0.6-4.3-0.5-5.6-3.2h-7.2c-1.6,2.6-4.7,0.9-7.2,2.8c-1.1,0.8-1.9,2-2.2,3.6C266.2,57.5,266.3,57.9,266.5,59z"/>
		<path style="fill-rule:evenodd;clip-rule:evenodd;fill:#FFFFFF;" d="M327.2,16.6h6.1c1.6,0,2.8,1.3,2.8,2.9l0,3.7h-11.7v-3.8
			C324.5,17.8,325.7,16.6,327.2,16.6z"/>
		<circle style="fill-rule:evenodd;clip-rule:evenodd;fill:#FFFFFF;" cx="330.3" cy="14.3" r="2.3"/>
		<path style="fill-rule:evenodd;clip-rule:evenodd;fill:#FFFFFF;" d="M307.8,80.4l3.3,1.2c0.6,0.2,0.9,0.9,0.7,1.5l-5.2,14
			c-0.2,0.6-0.9,0.9-1.5,0.7l-3.3-1.2c-0.6-0.2-0.9-0.9-0.7-1.5l5.2-14C306.5,80.5,307.2,80.2,307.8,80.4z"/>
		<path style="fill-rule:evenodd;clip-rule:evenodd;fill:#FFFFFF;" d="M352.9,80.4l-3.3,1.2c-0.6,0.2-0.9,0.9-0.7,1.5l5.2,14
			c0.2,0.6,0.9,0.9,1.5,0.7l3.3-1.2c0.6-0.2,0.9-0.9,0.7-1.5l-5.2-14C354.1,80.5,353.5,80.2,352.9,80.4z"/>
	</g>
	<circle style="fill-rule:evenodd;clip-rule:evenodd;fill:#FFFFFF;" cx="244" cy="78" r="11"/>
	<circle style="fill-rule:evenodd;clip-rule:evenodd;fill:#FFFFFF;" cx="232.5" cy="104.5" r="5.5"/>
	<circle style="fill-rule:evenodd;clip-rule:evenodd;fill:#FFFFFF;" cx="229.5" cy="134.5" r="6.5"/>
	<line style="fill:none;stroke:#FFFFFF;stroke-width:3;stroke-miterlimit:10;" x1="16" y1="179.5" x2="508" y2="179.5"/>
	<polygon style="fill:#FFFFFF;" points="227.7,179.5 274,179.5 250.8,200.8 	"/>
</g>
</svg>
